<?xml version="1.0" encoding="UTF-8"?>
<svg id="Layer_2" data-name="Layer 2" xmlns="http://www.w3.org/2000/svg" viewBox="0 0 261.4 35.59">
  <defs>
    <style>
      .cls-1 {
        fill: #fff;
        stroke-width: 0px;
      }
    </style>
  </defs>
  <g id="Layer_1-2" data-name="Layer 1">
    <g>
      <path class="cls-1" d="M34.52,17.77c-.05,5.57-.1,9.77-.1,12.53,0,6.61-9.86,6.51-9.86.1,0-.94,0-2.37-.05-4.19v-4.19l-3.11,4.78c-.94,1.53-2.32,2.32-4.14,2.32s-3.16-.79-4.14-2.37l-3.3-5.03v4.44c.05,1.92.05,3.4.05,4.39,0,6.61-9.86,6.51-9.86.1,0-2.81.05-7.05.1-12.67.05-5.67.1-9.91.1-12.72.05-1.63.64-2.91,1.82-3.75,1.23-.89,2.56-1.18,4.09-.84,1.53.3,2.66,1.18,3.5,2.61l7.64,11.79L26.09,1.74c2.47-3.7,8.68-1.04,8.53,3.5,0,2.76-.05,6.95-.1,12.53Z"/>
      <path class="cls-1" d="M54.3.17c6.56-.15,6.61,9.71.1,9.86h-8.29v2.42c.74,0,2.71-.05,3.45-.05,3.11,0,4.93,2.42,4.88,4.93,0,1.23-.44,2.37-1.33,3.4-.84,1.04-2.02,1.53-3.55,1.53-.74,0-2.66.05-3.4.05v3.16c.94-.05,2.32-.05,4.19-.05s3.3,0,4.24-.05c6.76,0,6.46,9.86.1,9.86-1.53.05-3.75.05-6.76.05s-5.23,0-6.71.05c-2.71,0-4.78-2.17-4.93-4.93-.35-8.93-.35-17.36-.05-25.35.15-2.76,2.22-4.93,4.98-4.88h13.07Z"/>
      <path class="cls-1" d="M87.74,15.45c-.05,4.39-.15,7.74-.2,9.96h8.24c3.11,0,4.93,2.42,4.93,4.93s-1.83,4.93-4.93,4.93h-13.12c-1.23,0-2.42-.44-3.5-1.38-1.04-.94-1.58-2.17-1.53-3.75l.44-24.9c.15-6.46,9.96-6.36,9.86.25l-.2,9.96Z"/>
      <path class="cls-1" d="M111.47,30.55c0,6.61-9.86,6.51-9.86.1-.1-8.14-.05-16.57.2-25.4.15-6.46,9.96-6.36,9.86.25-.25,8.73-.3,17.06-.2,25.05Z"/>
      <path class="cls-1" d="M132.67,15.01l6.71,13.17c3.01,5.92-5.87,10.21-8.78,4.49l-4.49-8.78-2.81,3.75.05,2.91c0,6.61-9.86,6.51-9.86.1-.1-8.14-.05-16.57.2-25.4.15-6.46,9.96-6.36,9.86.25l-.1,5.42,6.46-8.73c3.95-5.23,11.79.69,7.94,5.87l-5.18,6.95Z"/>
      <path class="cls-1" d="M158.77.17c6.56-.15,6.61,9.71.1,9.86h-8.29v2.42c.74,0,2.71-.05,3.45-.05,3.11,0,4.93,2.42,4.88,4.93,0,1.23-.44,2.37-1.33,3.4-.84,1.04-2.02,1.53-3.55,1.53-.74,0-2.66.05-3.4.05v3.16c.94-.05,2.32-.05,4.19-.05s3.3,0,4.24-.05c6.76,0,6.46,9.86.1,9.86-1.53.05-3.75.05-6.76.05s-5.23,0-6.71.05c-2.71,0-4.78-2.17-4.93-4.93-.34-8.93-.34-17.36-.05-25.35.15-2.76,2.22-4.93,4.98-4.88h13.07Z"/>
      <path class="cls-1" d="M207.79,30.2c-.2,6.61-9.86,6.51-9.86.15l-.05-7.89-5.82.05.05,8.04c0,3.16-2.42,4.98-4.93,4.98s-4.88-1.87-4.93-4.88c-.15-7.74-.05-16.23.2-25.4.05-1.53.59-2.71,1.63-3.55,1.04-.89,2.17-1.33,3.4-1.28,2.51,0,4.88,1.92,4.83,5.08l-.15,7.15,5.82-.05.15-7.69c.2-6.46,9.67-6.36,9.86.25.15,7.64.05,16.03-.2,25.05Z"/>
      <path class="cls-1" d="M228.16.17c6.56-.15,6.61,9.71.1,9.86h-8.29v2.42c.74,0,2.71-.05,3.45-.05,3.11,0,4.93,2.42,4.88,4.93,0,1.23-.44,2.37-1.33,3.4-.84,1.04-2.02,1.53-3.55,1.53-.74,0-2.66.05-3.4.05v3.16c.94-.05,2.32-.05,4.19-.05s3.3,0,4.24-.05c6.76,0,6.46,9.86.1,9.86-1.53.05-3.75.05-6.76.05s-5.23,0-6.71.05c-2.71,0-4.78-2.17-4.93-4.93-.35-8.93-.35-17.36-.05-25.35.15-2.76,2.22-4.93,4.98-4.88h13.07Z"/>
      <g>
        <path class="cls-1" d="M247.92,10.41c-.4-.09-.83-.16-1.29-.21l.9.55.39-.34Z"/>
        <path class="cls-1" d="M251.49,13.15c-.07-.31-.21-.61-.43-.92l-.13.57.57.35Z"/>
        <path class="cls-1" d="M244.78,17.1v.08c.47,0,.91,0,1.33-.04l-.06-.15-1.27.1Z"/>
        <path class="cls-1" d="M256.91,23.54c2.91-2.42,4.54-6.36,4.49-10.36-.05-3.4-1.08-6.21-3.11-8.43-2.02-2.22-4.68-3.6-7.99-4.04-1.63-.25-4.98-.35-10.11-.35-2.81,0-5.03,2.17-5.08,4.88-.25,8.83-.3,17.26-.2,25.4,0,6.41,9.86,6.51,9.86-.1,0-.79-.05-2.71-.05-3.5l2.56-.1,4.39,6.26c1.04,1.43,2.42,2.22,4.19,2.37,1.82.1,3.35-.49,4.49-1.83,1.33-1.53,1.38-3.21.1-5.08l-3.55-5.13ZM255.82,16.19l-5.81.48-1.34,5.67c-.04.18-.29.2-.37.03l-2.19-5.23c-.42.03-.86.04-1.33.04v-.08s-4.54.37-4.54.37c-.19.02-.28-.22-.14-.34l4.42-3.8-2.25-5.38c-.07-.17.12-.34.28-.24l4.08,2.48c.46.05.89.12,1.29.21l4.03-3.47c.14-.12.36,0,.31.19l-1.21,5.1c.22.3.37.61.43.92l4.41,2.68c.16.1.1.34-.08.36Z"/>
        <path class="cls-1" d="M251.05,14.96c.44-.63.58-1.23.45-1.81l-.57-.35.13-.57c-.12-.16-.25-.32-.41-.48-.67-.64-1.59-1.09-2.73-1.35l-.39.34-.9-.55c-.54-.05-1.13-.08-1.75-.07l-.1,6.97,1.27-.1.06.15c2.38-.16,4.05-.88,4.93-2.18Z"/>
      </g>
    </g>
  </g>
</svg>