<?xml version="1.0" encoding="UTF-8"?>
<svg id="Layer_2" data-name="Layer 2" xmlns="http://www.w3.org/2000/svg" viewBox="0 0 1506 1506">
  <defs>
    <style>
      .cls-1 {
        fill: #ff151b;
        stroke-width: 0px;
      }
    </style>
  </defs>
  <g id="Layer_1-2" data-name="Layer 1">
    <g>
      <path class="cls-1" d="M1446.81,459.89c-37.92-89.67-92.21-170.2-161.36-239.34-69.14-69.15-149.67-123.43-239.34-161.36C953.26,19.91,854.64,0,753,0s-200.26,19.91-293.11,59.19c-89.67,37.92-170.2,92.21-239.34,161.36-69.15,69.14-123.44,149.67-161.36,239.34C19.91,552.74,0,651.36,0,753s19.91,200.26,59.19,293.11c37.93,89.67,92.21,170.2,161.36,239.34,69.14,69.15,149.67,123.44,239.34,161.36,92.85,39.28,191.47,59.19,293.11,59.19s200.26-19.91,293.11-59.19c89.67-37.93,170.2-92.22,239.34-161.36,69.14-69.14,123.43-149.67,161.36-239.34,39.28-92.85,59.19-191.47,59.19-293.11s-19.91-200.26-59.19-293.11ZM1487.91,741.74c-14.21-8.85-38.43-17.38-38.91-26.5-.49-9.23,22.7-20.34,35.88-30.62,1.74,18.91,2.75,37.96,3.03,57.12ZM1440.92,640.18c-1.48-9.12,20.41-22.68,32.39-34.32,3.8,18.69,6.86,37.53,9.19,56.52-15.06-7.27-40.11-13.16-41.58-22.2ZM1424.77,566.47c-2.47-8.89,17.8-24.74,28.45-37.61,5.83,18.2,10.94,36.6,15.31,55.17-15.76-5.59-41.31-8.72-43.76-17.56ZM1446.05,507.64c-16.27-3.82-41.97-4.17-45.37-12.69-3.41-8.56,14.98-26.49,24.17-40.45,1.83,4.11,3.62,8.25,5.38,12.4,5.69,13.46,10.97,27.04,15.82,40.74ZM1368.95,426.48c-4.33-8.14,12.07-28.01,19.67-42.89,9.58,16.48,18.52,33.34,26.82,50.58-16.59-2.03-42.18.42-46.49-7.69ZM1329.98,361.84c-5.18-7.62,8.97-29.14,14.92-44.76,11.36,15.37,22.09,31.17,32.19,47.38-16.72-.24-41.94,4.99-47.11-2.62ZM1284.25,301.78c-5.95-7.01,5.77-29.89,10-46.06,12.97,14.09,25.34,28.62,37.11,43.58-16.64,1.57-41.15,9.49-47.11,2.48ZM1278.84,239.46c-16.37,3.37-39.84,13.84-46.52,7.52-6.67-6.33,2.53-30.35,5.01-46.87,12.11,10.63,23.91,21.69,35.39,33.17,2.05,2.05,4.09,4.11,6.12,6.18ZM1208.69,593.79c-2.54-5.13-6.19-8.78-10.95-10.95-4.76-2.16-10.61-3.24-17.54-3.24-7.67,0-14.2,1.42-19.58,4.26-5.38,2.85-9.68,6.78-12.9,11.79-.59.91-1.14,1.85-1.67,2.82v143.72h-53.46v-285.1h53.46v106.47c6.41-7.93,13.99-14.16,22.74-18.67,9.34-4.83,19.7-7.24,31.09-7.24,9.89,0,18.9,1.39,27,4.17,8.11,2.79,15.1,7.24,20.98,13.37,5.87,6.12,10.42,14.14,13.64,24.03,3.21,9.9,4.82,21.91,4.82,36.01v126.96h-53.82v-127.33c0-8.91-1.27-15.93-3.81-21.07ZM1174.81,198.08c-7.32-5.57-.74-30.49-.06-47.19,15.6,10.96,30.79,22.53,45.54,34.71-15.91,5.1-38.16,18.06-45.48,12.48ZM1156.27,138.34c-15.28,6.78-36.01,22.08-43.9,17.32-7.87-4.74-4.03-30.19-5.16-46.87,16.75,9.21,33.11,19.07,49.06,29.55ZM1039.1,75.77c16.43,6.95,32.55,14.46,48.34,22.54-14.44,8.41-33.37,25.82-41.73,21.94-8.32-3.85-7.26-29.52-10.2-45.98,1.2.49,2.39.99,3.59,1.5ZM942.25,667.02c.99,7.18,2.87,13.55,5.66,19.12,2.78,5.56,6.65,9.96,11.6,13.17,4.95,3.22,11.38,4.83,19.3,4.83,6.56,0,12.38-1.27,17.45-3.81,5.07-2.53,9.06-6.12,11.97-10.76,2.91-4.64,4.43-10.12,4.55-16.43h50.3c-.12,14.11-3.9,26.64-11.32,37.59-7.43,10.95-17.39,19.55-29.88,25.8-12.5,6.25-26.49,9.37-41.95,9.37s-29.18-2.6-40.74-7.79c-11.58-5.2-21.2-12.41-28.87-21.63-7.67-9.21-13.43-19.98-17.26-32.29-3.84-12.31-5.75-25.52-5.75-39.63v-5.38c0-14.23,1.91-27.5,5.75-39.82,3.83-12.31,9.59-23.07,17.26-32.29,7.67-9.22,17.26-16.43,28.77-21.63,11.51-5.19,25-7.79,40.47-7.79,16.45,0,30.9,3.15,43.34,9.46,12.43,6.31,22.21,15.32,29.32,27.01,7.12,11.69,10.74,25.52,10.86,41.48h-50.3c-.12-6.68-1.52-12.74-4.18-18.19-2.66-5.44-6.49-9.8-11.5-13.08-5.02-3.28-11.17-4.92-18.47-4.92-7.8,0-14.17,1.64-19.12,4.92-4.95,3.28-8.79,7.73-11.51,13.36s-4.61,12.01-5.66,19.12c-1.05,7.12-1.58,14.57-1.58,22.37v5.38c0,7.79.5,15.28,1.49,22.46ZM1014.7,65.96c-13.44,9.93-30.35,29.28-39.08,26.34-8.69-2.93-10.43-28.6-15.15-44.64,18.27,5.37,36.35,11.47,54.23,18.3ZM938.92,41.68c-12.27,11.33-27,32.45-36.02,30.47-8.95-1.96-13.48-27.29-19.91-42.73,18.8,3.35,37.46,7.44,55.93,12.26ZM860.91,25.83c-10.97,12.6-23.32,35.19-32.51,34.2-9.09-.98-16.32-25.65-24.38-40.3,19.1,1.3,38.07,3.33,56.89,6.1ZM753,18c9.57,0,19.11.18,28.63.54-7.46,10.72,11.78,332.99,16.13,473.26h33.31v49.56h34.52v37.86h-34.52v102.46c0,5.82.77,10.27,2.32,13.36,1.54,3.1,3.86,5.23,6.96,6.41,3.09,1.18,6.99,1.76,11.69,1.76,3.34,0,6.34-.15,9-.46,2.66-.31,4.92-.65,6.78-1.02l.18,39.35c-4.58,1.48-9.53,2.66-14.84,3.52-5.33.87-11.21,1.3-17.64,1.3-11.76,0-21.99-1.95-30.72-5.84-8.72-3.9-15.43-10.18-20.13-18.84-4.71-8.66-7.06-20.05-7.06-34.16v-107.84h-28.95v-37.86h28.95v-49.56h7.87c-19.14-140.29-53.65-462.54-61.11-473.26,9.52-.36,19.06-.54,28.63-.54ZM669.03,590.82c-2.11-4.64-5.36-8.26-9.75-10.85-4.39-2.6-10.05-3.9-16.98-3.9-5.94,0-11.07,1.02-15.4,3.06-4.34,2.04-7.68,4.95-10.03,8.72-2.35,3.78-3.52,8.2-3.52,13.28h-53.46c0-8.54,1.98-16.65,5.94-24.32,3.96-7.67,9.71-14.44,17.26-20.32,7.55-5.88,16.55-10.49,27.01-13.83,10.45-3.34,22.18-5.01,35.17-5.01,15.59,0,29.45,2.6,41.58,7.79,12.12,5.2,21.68,13,28.67,23.39,6.99,10.39,10.49,23.39,10.49,38.98v85.94c0,11.01.68,20.01,2.04,27,1.36,7,3.34,13.09,5.94,18.29v3.15h-54.01c-2.43-5.09-4.3-11.41-5.59-18.95-1.93,2.21-4.03,4.35-6.29,6.42-5.2,4.77-11.45,8.66-18.75,11.7-7.3,3.03-15.96,4.54-25.98,4.54-12.75,0-24.29-2.57-34.62-7.7-10.33-5.13-18.5-12.25-24.5-21.35-6-9.09-9-19.45-9-31.09,0-10.51,1.98-19.86,5.94-28.02,3.96-8.17,9.8-15.07,17.54-20.7,7.73-5.63,17.41-9.9,29.05-12.81,11.63-2.9,25.12-4.36,40.46-4.36h23.94v-12.43c0-6.44-1.05-11.98-3.15-16.62ZM701.98,19.73c-8.06,14.65-15.29,39.32-24.38,40.3-9.19.99-21.54-21.6-32.51-34.2,18.82-2.77,37.79-4.8,56.89-6.1ZM623.01,29.42c-6.43,15.44-10.96,40.77-19.91,42.73-9.02,1.98-23.75-19.14-36.02-30.47,18.47-4.82,37.13-8.91,55.93-12.26ZM545.53,47.66c-4.72,16.04-6.46,41.71-15.15,44.64-8.73,2.94-25.64-16.4-39.07-26.34,17.88-6.83,35.95-12.93,54.22-18.3ZM466.9,75.77c1.2-.51,2.39-1.01,3.59-1.5-2.94,16.46-1.88,42.13-10.2,45.98-8.36,3.88-27.29-13.53-41.73-21.94,15.79-8.08,31.91-15.59,48.34-22.54ZM398.79,108.79c-1.13,16.68,2.71,42.13-5.15,46.87-7.9,4.76-28.63-10.54-43.91-17.32,15.95-10.48,32.31-20.34,49.06-29.55ZM331.26,150.89c.67,16.7,7.26,41.61-.07,47.18-7.32,5.58-29.56-7.38-45.47-12.48,14.75-12.18,29.94-23.75,45.54-34.7ZM233.28,233.28c11.48-11.48,23.28-22.55,35.4-33.18,2.47,16.53,11.68,40.55,5,46.87-6.67,6.33-30.15-4.14-46.52-7.51,2.03-2.07,4.07-4.13,6.12-6.18ZM211.75,255.72c4.24,16.16,15.96,39.05,10,46.06s-30.46-.91-47.11-2.48c11.77-14.96,24.14-29.49,37.11-43.58ZM161.1,317.08c5.95,15.61,20.1,37.14,14.92,44.76-5.16,7.61-30.39,2.38-47.11,2.62,10.1-16.21,20.83-32.01,32.19-47.38ZM117.38,383.59c7.61,14.88,24,34.75,19.67,42.89-4.31,8.11-29.9,5.66-46.49,7.69,8.3-17.24,17.24-34.1,26.82-50.58ZM75.77,466.9c1.76-4.15,3.55-8.29,5.38-12.4,9.19,13.96,27.58,31.89,24.17,40.45-3.4,8.52-29.1,8.87-45.37,12.69,4.85-13.7,10.13-27.28,15.82-40.74ZM52.78,528.86c10.65,12.87,30.92,28.72,28.45,37.61-2.45,8.84-28,11.97-43.76,17.56,4.37-18.57,9.48-36.97,15.31-55.17ZM32.69,605.86c11.98,11.64,33.87,25.2,32.39,34.32-1.47,9.04-26.52,14.93-41.58,22.2,2.33-18.99,5.39-37.83,9.19-56.52ZM18.09,764.26c14.21,8.85,38.43,17.38,38.91,26.5.49,9.23-22.7,20.34-35.88,30.62-1.74-18.91-2.75-37.96-3.03-57.12ZM65.08,865.82c1.48,9.12-20.41,22.68-32.39,34.32-3.8-18.69-6.86-37.53-9.19-56.52,15.06,7.27,40.11,13.16,41.58,22.2ZM81.23,939.53c2.47,8.89-17.8,24.74-28.45,37.61-5.83-18.2-10.94-36.6-15.31-55.17,15.76,5.59,41.31,8.72,43.76,17.56ZM59.95,998.36c16.27,3.82,41.97,4.17,45.37,12.69,3.41,8.56-14.98,26.49-24.17,40.45-1.83-4.11-3.62-8.25-5.38-12.4-5.69-13.46-10.97-27.04-15.82-40.74ZM137.05,1079.52c4.33,8.14-12.07,28.01-19.67,42.89-9.58-16.48-18.52-33.34-26.82-50.58,16.59,2.03,42.18-.42,46.49,7.69ZM176.02,1144.16c5.18,7.62-8.97,29.14-14.92,44.76-11.36-15.37-22.09-31.17-32.19-47.38,16.72.24,41.94-4.99,47.11,2.62ZM221.75,1204.22c5.95,7.01-5.77,29.89-10,46.06-12.97-14.09-25.34-28.62-37.11-43.58,16.64-1.57,41.15-9.49,47.11-2.48ZM227.16,1266.54c16.37-3.37,39.84-13.84,46.52-7.52,6.67,6.33-2.53,30.35-5.01,46.87-12.11-10.63-23.91-21.69-35.39-33.17-2.05-2.05-4.09-4.11-6.12-6.18ZM331.19,1307.92c7.32,5.57.74,30.49.06,47.19-15.6-10.96-30.79-22.53-45.54-34.71,15.91-5.1,38.16-18.06,45.48-12.48ZM297.13,791.33h61.62l61.07,205.71,61.25-205.71h61.99l-94.1,270.25h-58.28l-93.55-270.25ZM349.73,1367.66c15.28-6.78,36.01-22.08,43.9-17.32,7.87,4.74,4.03,30.19,5.16,46.87-16.75-9.21-33.11-19.07-49.06-29.55ZM466.9,1430.23c-16.43-6.95-32.55-14.46-48.34-22.54,14.44-8.41,33.37-25.82,41.73-21.94,8.32,3.85,7.26,29.52,10.2,45.98-1.2-.49-2.39-.99-3.59-1.5ZM491.3,1440.04c13.44-9.93,30.35-29.28,39.08-26.34,8.69,2.93,10.43,28.6,15.15,44.64-18.27-5.37-36.35-11.47-54.23-18.3ZM616.29,827.71c-5.51,5.08-12.78,7.61-21.81,7.61s-16.46-2.53-21.9-7.61c-5.45-5.07-8.17-11.51-8.17-19.3s2.72-14.23,8.17-19.31c5.44-5.07,12.74-7.61,21.9-7.61s16.3,2.54,21.81,7.61c5.5,5.08,8.26,11.51,8.26,19.31s-2.76,14.23-8.26,19.3ZM621.39,860.75v200.83h-53.64v-200.83h53.64ZM567.08,1464.32c12.27-11.33,27-32.45,36.02-30.47,8.95,1.96,13.48,27.29,19.91,42.73-18.8-3.35-37.46-7.44-55.93-12.26ZM645.09,1480.17c10.97-12.6,23.32-35.19,32.51-34.2,9.09.98,16.32,25.65,24.38,40.3-19.1-1.3-38.07-3.33-56.89-6.1ZM753,1488c-9.57,0-19.11-.18-28.63-.54,7.18-10.31,14.52-286.62,21.66-422.89-3.41.48-6.97.72-10.67.72-12.5,0-23.61-2.54-33.32-7.61-9.72-5.07-17.88-12.18-24.5-21.34-6.62-9.16-11.67-19.92-15.13-32.3-3.46-12.37-5.2-25.86-5.2-40.46v-3.9c0-15.34,1.74-29.3,5.2-41.86,3.46-12.55,8.54-23.35,15.22-32.38,6.68-9.04,14.91-16.03,24.69-20.98,9.77-4.95,20.91-7.42,33.41-7.42,11.75,0,22.05,2.47,30.9,7.42,6.57,3.67,12.42,8.48,17.54,14.44v-84.66c-179.28-10.22-754.09-59.97-766.08-52.5.28-19.16,1.29-38.21,3.03-57.12,4.86,3.79,117.23,18.58,257.1,36.21l-55.21-248.89h55.12l36.9,188.33,44.59-188.33h46.95l44.71,188.34,36.59-188.34h55.13l-59.77,270.25h-34.05c133.83,16.68,264.75,33.08,334.99,43.3v-9.01h53.83v9.86c156.99-7.49,638.02-14.67,649.91-22.08-.28,19.16-1.29,38.21-3.03,57.12-11.02-8.59-490.22-17.77-646.88-25.94v266.14h-48.45l-2.63-21.38c-5.77,7.44-12.56,13.33-20.38,17.67-2.17,1.2-4.42,2.26-6.76,3.17,7.2,134.97,14.61,416.02,21.85,426.42-9.52.36-19.06.54-28.63.54ZM1101.1,1036.24c-8.1-9.21-14.26-20.04-18.46-32.48-4.21-12.43-6.32-25.95-6.32-40.55v-3.9c0-14.73,2.11-28.31,6.32-40.74,4.2-12.44,10.33-23.23,18.37-32.39,8.04-9.16,17.94-16.3,29.7-21.44,11.75-5.13,25.24-7.7,40.46-7.7s28.77,2.57,40.65,7.7c11.88,5.14,21.87,12.28,29.98,21.44,8.1,9.16,14.26,19.95,18.46,32.39,4.21,12.43,6.32,26.01,6.32,40.74v3.9c0,14.6-2.11,28.12-6.32,40.55-4.2,12.44-10.36,23.27-18.46,32.48-8.11,9.22-18.04,16.37-29.79,21.44-11.76,5.07-25.25,7.61-40.47,7.61s-28.74-2.54-40.55-7.61c-11.82-5.07-21.78-12.22-29.89-21.44ZM929.04,990.31c2.29,6.8,5.57,12.68,9.84,17.63,4.27,4.95,9.47,8.79,15.59,11.51,6.13,2.72,13.09,4.08,20.88,4.08,9.65,0,18.66-1.89,27.01-5.66s15.56-9.5,21.62-17.17l25.99,28.21c-4.21,6.07-9.93,11.88-17.17,17.45s-15.93,10.12-26.08,13.64c-10.15,3.53-21.72,5.29-34.71,5.29-15.59,0-29.58-2.5-41.95-7.51-12.37-5.02-22.86-11.98-31.46-20.89s-15.19-19.27-19.77-31.09c-4.58-11.81-6.86-24.4-6.86-37.77v-7.42c0-15.22,2.16-29.14,6.49-41.76,4.33-12.63,10.55-23.58,18.66-32.86,8.1-9.28,17.97-16.42,29.6-21.44,11.63-5.01,24.75-7.51,39.35-7.51s26.85,2.35,37.87,7.05c11.01,4.7,20.26,11.39,27.74,20.05,7.49,8.66,13.15,19.02,16.99,31.09,3.83,12.06,5.75,25.46,5.75,40.18v22.27h-128.22c.55,4.42,1.5,8.63,2.84,12.63ZM804.02,1486.27c8.06-14.65,15.29-39.32,24.38-40.3,9.19-.99,21.54,21.6,32.51,34.2-18.82,2.77-37.79,4.8-56.89,6.1ZM882.99,1476.58c6.43-15.44,10.96-40.77,19.91-42.73,9.02-1.98,23.75,19.14,36.02,30.47-18.47,4.82-37.12,8.91-55.93,12.26ZM960.47,1458.34c4.72-16.04,6.46-41.71,15.15-44.64,8.73-2.94,25.64,16.4,39.07,26.34-17.87,6.83-35.95,12.92-54.22,18.3ZM1039.1,1430.23c-1.2.51-2.39,1.01-3.59,1.5,2.94-16.46,1.88-42.13,10.2-45.98,8.36-3.88,27.29,13.53,41.73,21.94-15.79,8.08-31.91,15.59-48.34,22.54ZM1107.21,1397.21c1.13-16.68-2.71-42.13,5.15-46.87,7.9-4.76,28.63,10.54,43.91,17.32-15.95,10.48-32.31,20.34-49.06,29.55ZM1174.74,1355.11c-.67-16.7-7.26-41.61.07-47.18,7.32-5.58,29.56,7.38,45.47,12.48-14.75,12.18-29.94,23.75-45.54,34.7ZM1272.72,1272.72c-11.48,11.48-23.28,22.55-35.4,33.18-2.47-16.53-11.68-40.55-5-46.87,6.67-6.33,30.15,4.14,46.52,7.51-2.03,2.07-4.07,4.13-6.12,6.18ZM1294.25,1250.28c-4.24-16.16-15.96-39.05-10-46.06s30.46.91,47.11,2.48c-11.77,14.96-24.14,29.49-37.11,43.58ZM1344.9,1188.92c-5.95-15.61-20.1-37.14-14.92-44.76,5.16-7.61,30.39-2.38,47.11-2.62-10.1,16.21-20.83,32.01-32.19,47.38ZM1388.62,1122.41c-7.61-14.88-24-34.75-19.67-42.89,4.31-8.11,29.9-5.66,46.49-7.69-8.3,17.24-17.24,34.1-26.82,50.58ZM1430.23,1039.1c-1.76,4.15-3.55,8.29-5.38,12.4-9.19-13.96-27.58-31.89-24.17-40.45,3.4-8.52,29.1-8.87,45.37-12.69-4.85,13.7-10.13,27.28-15.82,40.74ZM1453.21,977.14c-10.64-12.87-30.91-28.72-28.44-37.61,2.45-8.84,28-11.97,43.76-17.56-4.38,18.57-9.48,36.97-15.32,55.17ZM1473.31,900.14c-11.98-11.64-33.87-25.2-32.39-34.32,1.47-9.04,26.51-14.93,41.57-22.2-2.32,18.99-5.38,37.84-9.18,56.52Z"/>
      <path class="cls-1" d="M1139.15,1005.99c3.28,5.51,7.58,9.81,12.9,12.9,5.32,3.09,11.82,4.64,19.49,4.64s13.8-1.55,19.12-4.64c5.32-3.09,9.59-7.39,12.81-12.9,3.21-5.5,5.6-11.91,7.14-19.21,1.55-7.3,2.32-15.16,2.32-23.57v-3.9c0-8.17-.77-15.87-2.32-23.11-1.54-7.24-3.96-13.67-7.23-19.3-3.29-5.63-7.59-10.06-12.9-13.28-5.33-3.21-11.76-4.82-19.31-4.82s-13.95,1.61-19.21,4.82c-5.26,3.22-9.53,7.65-12.81,13.28-3.28,5.63-5.66,12.06-7.14,19.3-1.49,7.24-2.23,14.94-2.23,23.11v3.9c0,8.41.74,16.27,2.23,23.57,1.48,7.3,3.86,13.71,7.14,19.21Z"/>
      <path class="cls-1" d="M985.93,904c-5.32-3.47-12.13-5.2-20.42-5.2-7.05,0-13.11,1.55-18.19,4.64-5.07,3.09-9.18,7.42-12.34,12.99-3.15,5.57-5.51,12.1-7.05,19.58-.41,1.96-.76,3.98-1.06,6.04h75.02v-4.09c0-7.42-1.33-14.07-3.99-19.95s-6.65-10.55-11.97-14.01Z"/>
      <path class="cls-1" d="M342.48,728.88c27.56,3.45,55.67,6.95,83.8,10.46l-43.31-174.51-40.49,164.05Z"/>
      <path class="cls-1" d="M631.35,652.54c-5.2,1.61-9.47,3.87-12.81,6.78-3.34,2.9-5.78,6.28-7.33,10.11-1.55,3.84-2.32,8.05-2.32,12.62s1.05,8.7,3.16,12.35c2.1,3.65,5.13,6.49,9.09,8.53,3.96,2.05,8.6,3.07,13.92,3.07,8.04,0,15.04-1.61,20.98-4.83,5.94-3.22,10.54-7.17,13.82-11.88.89-1.28,1.67-2.54,2.32-3.78v-35.38h-22.45c-7.06,0-13.18.8-18.38,2.41Z"/>
      <path class="cls-1" d="M784.17,1001.97v-81.41c-1.3-2.72-2.82-5.21-4.55-7.47-3.4-4.45-7.61-7.92-12.62-10.39-5.01-2.48-10.92-3.72-17.72-3.72s-12.87,1.58-17.82,4.74c-4.95,3.15-8.94,7.45-11.97,12.9-3.04,5.44-5.26,11.85-6.69,19.21-1.42,7.36-2.13,15.31-2.13,23.85v3.9c0,8.29.65,16.02,1.95,23.2,1.3,7.18,3.46,13.52,6.5,19.02,3.03,5.51,6.98,9.78,11.88,12.81,4.79,2.98,10.63,4.49,17.53,4.54.12.01.25.01.38.01,3.01,0,5.85-.23,8.51-.68,5.43-.91,10.14-2.76,14.13-5.54,5.33-3.71,9.54-8.71,12.62-14.97Z"/>
    </g>
  </g>
</svg>