<?xml version="1.0" encoding="UTF-8"?>
<svg id="Layer_2" data-name="Layer 2" xmlns="http://www.w3.org/2000/svg" viewBox="0 0 1328.47 297.03">
  <defs>
    <style>
      .cls-1 {
        fill: #c7090d;
        stroke-width: 0px;
      }
    </style>
  </defs>
  <g id="Layer_2-2" data-name="Layer 2">
    <g>
      <g>
        <path class="cls-1" d="M583.74,23.69c-4.88,2.92-9.93,6.83-15.12,11.75-5.2,4.92-9.53,9.53-12.99,13.84-3.46,4.31-9.05,12.81-16.79,25.49-7.74,12.68-15.52,22.94-23.35,30.77s-17.68,14.33-29.54,19.5c-11.86,5.17-24.1,7.75-36.72,7.75-10.91,0-19.64-1.95-26.21-5.85s-9.85-8.61-9.85-14.13c0-2.54.78-4.65,2.33-6.33,1.55-1.68,3.47-2.52,5.76-2.52,1.9,0,3.52.59,4.85,1.76,1.33,1.17,2,2.68,2,4.52,0,1.65-.54,3.01-1.62,4.09-1.08,1.08-2.47,1.62-4.19,1.62-1.97,0-3.49-.67-4.57-2-.82.82-1.24,1.62-1.24,2.38,0,1.71,1.14,3.98,3.42,6.8,2.28,2.82,6.17,5.01,11.65,6.56,5.48,1.55,11.49,2.33,18.03,2.33,9.58,0,18.58-1.79,27.02-5.38,8.43-3.58,15.82-8.45,22.17-14.6,6.34-6.15,13.32-14.05,20.93-23.69l10.37-13.03c9.58-12.05,18.25-21.97,26.02-29.77,7.77-7.8,16.89-15.38,27.35-22.74-2.28-5.05-8.13-9.96-17.55-14.73-9.42-4.77-20.63-7.15-33.63-7.15-15.09,0-29.6,3.01-43.52,9.03-13.92,6.02-25.53,14.08-34.82,24.18-9.29,10.1-13.94,19.53-13.94,28.27,0,5.95,2.66,11.15,7.99,15.58,5.33,4.44,11.38,6.65,18.17,6.65,7.74,0,16.58-2.17,26.54-6.51,9.96-4.34,19.06-10.35,27.3-18.04,8.24-7.69,12.37-14.83,12.37-21.42,0-4.3-1.62-7.63-4.85-9.97s-7.29-3.51-12.18-3.51c-10.4,0-21.1,3.75-32.11,11.25-11,7.5-20.79,17.54-29.35,30.13l-.57-.38c5.52-9.43,14.22-18.78,26.11-28.05,11.89-9.27,23.8-13.9,35.72-13.9,5.9,0,10.46,1.39,13.7,4.18,3.23,2.79,4.85,6.24,4.85,10.35,0,9.69-6.58,19.98-19.74,30.87-13.16,10.89-27.67,16.34-43.52,16.34-9.83,0-17.52-2.36-23.07-7.09-5.55-4.72-8.32-10.13-8.32-16.22,0-9.32,4.84-19.12,14.51-29.39,9.67-10.27,21.23-18.39,34.67-24.35,13.44-5.96,27.78-8.94,43-8.94,13.32,0,24.73,2.32,34.25,6.94,9.51,4.63,15.76,9.7,18.74,15.22,9.13-6.59,17.31-11.76,24.54-15.51l.19.67-11.13,6.85c-3.23,2.03-7.61,4.95-13.13,8.75,3.17,6.09,4.76,12.59,4.76,19.5,0,9.13-2.73,16.38-8.18,21.74-5.45,5.36-11.7,8.04-18.74,8.04-6.03,0-9.04-2.31-9.04-6.94,0-4.38,3.12-8.56,9.37-12.56,6.25-4,12.22-5.99,17.93-5.99l-.09.67c-6.83.82-12.91,3.06-18.25,6.71-5.34,3.65-8.01,7.41-8.01,11.27,0,3.11,1.48,4.66,4.46,4.66,5.06,0,10.89-3.53,17.5-10.61,6.61-7.07,9.91-14.66,9.91-22.78,0-4.57-.86-8.88-2.57-12.94Z"/>
        <path class="cls-1" d="M535.8,114.44l-.67-.67c13.95-11.92,22.12-18.74,24.5-20.45,2.38-1.71,4.25-2.89,5.61-3.52,1.36-.63,2.52-1.43,3.47-2.38,10.78-11.54,21.12-21.82,31.01-30.82,9.89-9,18.34-16,25.35-20.98,7.01-4.98,12.86-7.47,17.55-7.47,1.71,0,3.15.52,4.33,1.57,1.17,1.05,1.76,2.2,1.76,3.47,0,3.68-4.06,9.15-12.18,16.41-8.12,7.26-18.17,14.51-30.15,21.74-11.99,7.23-21.18,11.76-27.59,13.6-1.46,1.71-4.15,4.69-8.09,8.94l-7.61,8.37-9.61,11.42c-6.66,7.93-10.21,12.97-10.65,15.13v.86c0,2.09,1.17,3.14,3.52,3.14,5.45,0,15.32-6.34,29.58-19.03l.67.67-5.8,4.95c-11.54,9.83-19.91,14.75-25.11,14.75-1.59,0-2.97-.62-4.14-1.86-1.17-1.24-1.76-2.71-1.76-4.42,0-4.69,3.65-11.48,10.94-20.36,7.29-8.88,11.99-14.02,14.08-15.41l-.09-.57c-2.28,1.01-5.65,3.46-10.08,7.32l-18.83,15.6ZM580.13,83.52c5.07-1.65,13.68-6.04,25.83-13.17,12.14-7.13,22.08-14.27,29.82-21.4,7.74-7.13,11.61-12.38,11.61-15.74,0-1.01-.48-1.92-1.43-2.71-.95-.79-2.16-1.19-3.62-1.19-3.8,0-8.42,1.82-13.84,5.47-5.42,3.65-13.73,11.27-24.92,22.88-11.19,11.61-19.01,20.23-23.45,25.87Z"/>
        <path class="cls-1" d="M624.69,95.13h8.43l-26.69,27.87c-2.63,2.7-3.94,4.87-3.94,6.5,0,1.07.36,1.87,1.09,2.4.73.53,1.47.8,2.24.8,1.52,0,3.96-1.12,7.32-3.36,3.36-2.24,9.83-7.43,19.41-15.57l.67.67c-10.18,8.62-16.93,13.97-20.25,16.03-3.32,2.06-5.83,3.09-7.54,3.09-1.52,0-2.71-.56-3.56-1.67-.85-1.11-1.28-2.42-1.28-3.95,0-2.66,1.29-5.99,3.88-9.99l-.38-.29c-12.87,10.59-21.64,15.89-26.34,15.89-1.96,0-3.5-.81-4.61-2.43-1.11-1.62-1.66-3.72-1.66-6.33,0-7.23,5.08-13.97,15.24-20.21,10.16-6.25,18.72-9.37,25.68-9.37,3.61,0,5.41,1.52,5.41,4.57,0,.7-.04,1.59-.12,2.66l7.01-7.33ZM616.56,99.59c0-2.28-1.46-3.42-4.37-3.42-5.25,0-12.96,4.57-23.11,13.71-10.16,9.14-15.23,15.58-15.23,19.31,0,.82.35,1.6,1.04,2.33.7.73,1.68,1.09,2.94,1.09,1.83,0,4.86-1.17,9.06-3.51,4.21-2.34,9.38-6.14,15.52-11.39,6.14-5.25,10.03-9.06,11.67-11.43s2.47-4.6,2.47-6.69Z"/>
        <path class="cls-1" d="M633.21,114.44l-.67-.67,8.94-7.52c3.04-2.6,6.67-5.12,10.89-7.56,4.22-2.44,7.53-3.66,9.94-3.66,1.46,0,2.63.49,3.52,1.47.89.98,1.33,2.14,1.33,3.47,0,2.66-.95,5.2-2.85,7.61-1.9,2.41-7.29,7.52-16.17,15.32-3.3,2.98-4.95,5.23-4.95,6.75,0,1.65.92,2.47,2.75,2.47,2.66,0,6.3-1.47,10.92-4.42,4.62-2.95,12.82-9.72,24.61-20.31l9.12-8.18c.63-.57,1.83-1.93,3.61-4.09h9.22l-40.48,42.52c13.26-3.42,27.04-11.38,41.31-23.88l.67.67c-15.77,13.57-30.37,21.85-43.8,24.83l-10.17,10.56c-5.83,6.09-12.74,12.14-20.72,18.17-7.98,6.02-14.86,9.04-20.63,9.04-3.8,0-5.7-1.33-5.7-4,0-3.8,4.21-8.7,12.64-14.7,8.43-5.99,20.02-11.31,34.78-15.93l38.62-40.43-.34-.48c-1.78,1.52-4.19,3.68-7.23,6.47l-8.75,8.09c-2.16,1.97-5.77,4.8-10.84,8.51s-8.83,6.09-11.27,7.13c-2.44,1.05-4.55,1.57-6.33,1.57-1.14,0-2.3-.41-3.47-1.24-1.17-.83-1.76-2.13-1.76-3.91,0-5.02,3.23-10.27,9.7-15.74,6.47-5.47,10.46-9.06,11.99-10.78,1.52-1.72,2.28-3.05,2.28-4.01,0-1.08-.76-1.62-2.28-1.62-1.65,0-4.36,1.05-8.13,3.16-3.77,2.11-8.2,5.26-13.27,9.47l-7.04,5.83ZM649.53,144.69c-10.71,2.48-20.8,6.92-30.27,13.31-9.47,6.39-14.21,11.46-14.21,15.22,0,1.91,1.52,2.86,4.56,2.86,4.18,0,8.33-1.38,12.45-4.15,4.12-2.77,10.58-8.89,19.39-18.37l8.08-8.87Z"/>
        <path class="cls-1" d="M704.94,114.44l-.67-.67,22.64-18.86c2.85-2.41,5.96-4.51,9.32-6.29l25.68-25.86c8.56-8.62,17.95-16.89,28.16-24.82,10.21-7.92,17.53-11.89,21.97-11.89,3.87,0,5.8,1.68,5.8,5.04,0,4.5-3.21,10-9.63,16.5-6.42,6.5-15.1,13.16-26.06,19.98-10.96,6.82-19.52,11.56-25.68,14.22s-9.91,4.73-11.24,6.18l-20.49,22.35c-8.58,9.39-12.87,15.57-12.87,18.55,0,1.14.49,2.09,1.48,2.85.99.76,2.09,1.14,3.3,1.14,3.51,0,8.54-2.01,15.11-6.04,6.57-4.03,11.86-8.04,15.88-12.03,1.58-4.31,3.95-8.61,7.09-12.89,3.14-4.28,5.38-6.42,6.71-6.42.95,0,1.43.57,1.43,1.71,0,1.65-1.92,4.84-5.76,9.56-3.84,4.73-6.83,7.82-8.99,9.28-.25.89-.38,1.65-.38,2.28,0,.95.38,1.76,1.15,2.42.76.67,1.63,1,2.58,1,1.21,0,2.5-.38,3.88-1.14,1.37-.76,4.29-3.04,8.75-6.85l.57.67-5.74,4.85c-2.68,2.28-5.26,3.42-7.75,3.42-1.15,0-2.22-.39-3.2-1.19-.99-.79-1.51-2.05-1.58-3.76-14.21,10.91-23.97,16.36-29.3,16.36-1.97,0-3.65-.71-5.04-2.14-1.4-1.43-2.09-3.25-2.09-5.47,0-5.33,2.57-11.04,7.71-17.12l15.51-17.03c.06-.06.32-.22.76-.48l-.29-.57c-2.73,1.46-4.98,3.03-6.75,4.71-1.78,1.68-5.71,4.99-11.8,9.94l-10.18,8.47ZM749.52,83.49c-.38.44,2.38-.73,8.29-3.52,3.75-1.71,8.16-4,13.25-6.86,7.24-4.06,13.31-7.81,18.2-11.24,4.89-3.43,9.46-7.21,13.72-11.33,4.26-4.13,7.32-7.54,9.2-10.24,1.87-2.7,3.08-4.7,3.62-6,.54-1.3.81-2.46.81-3.48,0-2.54-1.46-3.81-4.38-3.81-4,0-10.06,3.45-18.16,10.33s-16.69,15.28-25.78,25.19l-18.77,20.95Z"/>
        <path class="cls-1" d="M806.15,113.77l.67.67c-2.35,2.22-4.76,3.33-7.23,3.33-2.03,0-3.74-.73-5.14-2.19-4.69,4.95-9.7,9.1-15.03,12.46-5.33,3.36-9.77,5.04-13.32,5.04-1.84,0-3.39-.67-4.66-2-1.27-1.33-1.9-3.17-1.9-5.52,0-5.39,2.41-10.57,7.23-15.55,4.82-4.98,10.35-8.85,16.6-11.61,6.25-2.76,11.21-4.14,14.89-4.14s5.42,1.71,5.42,5.14-2.85,8.66-8.56,15.32c1.14,1.4,2.66,2.09,4.57,2.09,2.16,0,4.31-1.01,6.47-3.04ZM802.73,99.12c0-1.2-.46-2.19-1.38-2.95-.92-.76-1.95-1.14-3.08-1.14-4.81,0-12.07,4.82-21.78,14.46-9.71,9.64-14.57,16.01-14.57,19.12,0,.89.44,1.7,1.33,2.43.89.73,1.9,1.09,3.04,1.09,2.66,0,6.47-1.38,11.44-4.14,4.97-2.76,9.33-6.12,13.1-10.08,3.76-3.96,6.69-7.51,8.78-10.65,2.09-3.14,3.13-5.85,3.13-8.13Z"/>
        <path class="cls-1" d="M848.29,113.77l.67.67c-2.35,2.22-4.76,3.33-7.23,3.33-2.03,0-3.74-.73-5.14-2.19-4.69,4.95-9.7,9.1-15.03,12.46-5.33,3.36-9.77,5.04-13.32,5.04-1.84,0-3.39-.67-4.66-2-1.27-1.33-1.9-3.17-1.9-5.52,0-5.39,2.41-10.57,7.23-15.55,4.82-4.98,10.35-8.85,16.6-11.61,6.25-2.76,11.21-4.14,14.89-4.14s5.42,1.71,5.42,5.14-2.85,8.66-8.56,15.32c1.14,1.4,2.66,2.09,4.57,2.09,2.16,0,4.31-1.01,6.47-3.04ZM844.87,99.12c0-1.2-.46-2.19-1.38-2.95-.92-.76-1.95-1.14-3.08-1.14-4.81,0-12.07,4.82-21.78,14.46-9.71,9.64-14.57,16.01-14.57,19.12,0,.89.44,1.7,1.33,2.43.89.73,1.9,1.09,3.04,1.09,2.66,0,6.47-1.38,11.44-4.14,4.97-2.76,9.33-6.12,13.1-10.08,3.76-3.96,6.69-7.51,8.78-10.65,2.09-3.14,3.13-5.85,3.13-8.13Z"/>
        <path class="cls-1" d="M848.96,114.44l-.67-.67,20.74-17.45c5.01-4.19,11.45-8.45,19.31-12.78l26.92-26.36c20.55-20.11,34.5-30.17,41.86-30.17,2.03,0,3.66.62,4.9,1.86s1.85,2.56,1.85,3.95c0,2.03-.84,4.35-2.52,6.95-1.68,2.6-5.06,6.19-10.13,10.76-5.07,4.57-12.75,9.97-23.02,16.19-10.27,6.22-19.28,10.95-27.02,14.19-3.04,1.27-5.2,2.64-6.47,4.09l-42.61,47.5h-8.93l38.99-41.79,3.8-3.81-.38-.38c-5.58,2.54-13.22,7.97-22.93,16.28l-13.7,11.62ZM912.22,113.77l.67.67c-9.32,7.89-15.98,12.97-19.98,15.24-4,2.27-7.36,3.41-10.08,3.41-2.22,0-3.79-.83-4.71-2.47-.92-1.65-1.38-3.17-1.38-4.57,0-2.47,1.41-4.98,4.23-7.52,2.82-2.54,4.23-4.28,4.23-5.23,0-1.52-1.46-2.28-4.38-2.28-2.66,0-5.2.32-7.61.95l.19-.95c1.27-.32,1.96-.48,2.09-.48l6.66-.48c1.84-.12,3.34-.46,4.52-.99,1.17-.54,2.74-1.84,4.71-3.92,6.85-7.12,13.19-10.68,19.03-10.68,1.27,0,2.31.38,3.14,1.14.82.76,1.24,1.62,1.24,2.57,0,.76-.26,1.41-.79,1.95-.53.54-1.14.81-1.82.81-1.49,0-2.24-.7-2.24-2.09,0-.82.33-1.36,1-1.62.67-.25,1-.48,1-.67,0-.95-.67-1.43-2-1.43-1.08,0-2.16.35-3.25,1.04s-2.67,2.27-4.77,4.73c-3.88,4.66-9.45,7.88-16.71,9.64,2.16,1.4,3.23,3.42,3.23,6.09,0,1.84-.41,3.38-1.24,4.61-.83,1.24-2.24,2.7-4.23,4.38-2,1.68-3,2.93-3,3.76,0,1.65,1.08,2.47,3.23,2.47,5.52,0,15.19-6.02,29.01-18.07ZM962.44,32.92c0-1.27-.52-2.41-1.57-3.43s-2.36-1.53-3.95-1.53c-1.27,0-2.51.25-3.71.76-1.21.51-3.19,1.7-5.95,3.58-2.76,1.88-7.56,6.02-14.41,12.44-6.85,6.42-14.21,13.95-22.07,22.6-7.87,8.64-11.8,13-11.8,13.06,0,.25,3-1.03,8.99-3.86,5.99-2.83,13.63-7.15,22.93-12.97,9.29-5.81,16.3-10.95,21.02-15.4,4.72-4.45,7.66-7.74,8.8-9.87,1.14-2.13,1.71-3.93,1.71-5.39Z"/>
      </g>
      <g>
        <path class="cls-1" d="M578.17,194.71c-.35-.16-.63-.38-.83-.66-.2-.28-.3-.61-.31-.98h.94c.03.32.16.58.39.8.23.22.56.33,1.01.33s.75-.11,1-.32c.24-.21.36-.48.36-.81,0-.26-.07-.47-.21-.63s-.32-.29-.53-.37-.5-.17-.86-.27c-.45-.12-.8-.23-1.07-.35-.27-.12-.5-.3-.69-.55-.19-.25-.29-.58-.29-1,0-.37.09-.7.28-.98.19-.29.45-.5.79-.66.34-.16.73-.23,1.17-.23.63,0,1.15.16,1.56.48.41.32.63.74.69,1.26h-.97c-.03-.26-.17-.49-.41-.68s-.56-.3-.95-.3c-.37,0-.67.1-.9.29-.23.19-.35.46-.35.8,0,.25.07.45.21.6.14.16.31.27.51.35s.49.17.86.28c.45.12.81.25,1.08.36.27.12.5.3.7.55.19.25.29.59.29,1.02,0,.33-.09.64-.26.93-.17.29-.43.53-.78.71-.34.18-.75.27-1.21.27s-.85-.08-1.2-.24Z"/>
        <path class="cls-1" d="M584.27,194.5c-.52-.29-.93-.71-1.23-1.23-.3-.53-.45-1.12-.45-1.78s.15-1.25.45-1.78c.3-.53.71-.94,1.23-1.23.52-.29,1.09-.44,1.72-.44s1.21.15,1.73.44c.52.29.93.71,1.22,1.23s.45,1.12.45,1.79-.15,1.26-.45,1.79c-.3.52-.71.93-1.22,1.23-.52.29-1.09.44-1.73.44s-1.2-.15-1.72-.44ZM587.27,193.85c.38-.22.68-.54.89-.94.22-.41.33-.88.33-1.42s-.11-1.02-.33-1.42c-.22-.41-.51-.72-.89-.94-.38-.22-.8-.33-1.28-.33s-.91.11-1.28.33c-.38.22-.67.53-.89.94-.22.4-.33.88-.33,1.42s.11,1.01.33,1.42c.22.41.51.72.89.94.38.22.8.33,1.28.33s.9-.11,1.28-.33Z"/>
        <path class="cls-1" d="M597.43,188.15v6.72h-.88v-5.01l-2.23,5.01h-.62l-2.24-5.02v5.02h-.88v-6.72h.95l2.49,5.56,2.49-5.56h.94Z"/>
        <path class="cls-1" d="M599.81,188.82v2.26h2.47v.73h-2.47v2.33h2.76v.73h-3.64v-6.78h3.64v.73h-2.76Z"/>
        <path class="cls-1" d="M607.85,194.5c-.52-.29-.93-.71-1.23-1.23-.3-.53-.45-1.12-.45-1.78s.15-1.25.45-1.78c.3-.53.71-.94,1.23-1.23.52-.29,1.09-.44,1.72-.44s1.21.15,1.73.44c.52.29.93.71,1.22,1.23s.45,1.12.45,1.79-.15,1.26-.45,1.79c-.3.52-.71.93-1.22,1.23-.52.29-1.09.44-1.73.44s-1.2-.15-1.72-.44ZM610.85,193.85c.38-.22.68-.54.89-.94.22-.41.33-.88.33-1.42s-.11-1.02-.33-1.42c-.22-.41-.51-.72-.89-.94-.38-.22-.8-.33-1.28-.33s-.91.11-1.28.33c-.38.22-.67.53-.89.94-.22.4-.33.88-.33,1.42s.11,1.01.33,1.42c.22.41.51.72.89.94.38.22.8.33,1.28.33s.9-.11,1.28-.33Z"/>
        <path class="cls-1" d="M617.96,188.11v.72h-2.94v2.28h2.39v.72h-2.39v3.05h-.88v-6.77h3.83Z"/>
        <path class="cls-1" d="M628.49,188.15v6.72h-.88v-5.01l-2.23,5.01h-.62l-2.24-5.02v5.02h-.88v-6.72h.95l2.49,5.56,2.49-5.56h.94Z"/>
        <path class="cls-1" d="M634.73,188.11l-2.21,4.22v2.55h-.88v-2.55l-2.21-4.22h.98l1.67,3.43,1.67-3.43h.98Z"/>
        <path class="cls-1" d="M641.82,194.88l-1.61-2.77h-1.07v2.77h-.88v-6.77h2.19c.51,0,.94.09,1.3.26.35.17.62.41.79.71s.26.64.26,1.02c0,.47-.13.88-.4,1.23s-.67.59-1.21.71l1.7,2.84h-1.06ZM639.14,191.4h1.3c.48,0,.84-.12,1.08-.35.24-.24.36-.55.36-.95s-.12-.71-.35-.93c-.24-.22-.6-.33-1.08-.33h-1.3v2.57Z"/>
        <path class="cls-1" d="M648.17,193.37h-2.95l-.54,1.51h-.93l2.45-6.73h1.02l2.44,6.73h-.93l-.54-1.51ZM647.91,192.65l-1.22-3.42-1.22,3.42h2.45Z"/>
        <path class="cls-1" d="M656.04,194.88h-.88l-3.56-5.39v5.39h-.88v-6.78h.88l3.56,5.38v-5.38h.88v6.78Z"/>
        <path class="cls-1" d="M661.57,188.52c.54.28.96.67,1.24,1.18s.43,1.11.43,1.81-.14,1.29-.43,1.8c-.29.51-.7.9-1.24,1.17-.54.27-1.18.4-1.92.4h-2.11v-6.77h2.11c.74,0,1.38.14,1.92.41ZM661.65,193.45c.46-.46.69-1.11.69-1.95s-.23-1.5-.69-1.97-1.13-.71-2-.71h-1.22v5.32h1.22c.87,0,1.54-.23,2-.69Z"/>
        <path class="cls-1" d="M665.76,194.5c-.52-.29-.93-.71-1.23-1.23-.3-.53-.45-1.12-.45-1.78s.15-1.25.45-1.78c.3-.53.71-.94,1.23-1.23.52-.29,1.09-.44,1.72-.44s1.21.15,1.73.44c.52.29.93.71,1.22,1.23s.45,1.12.45,1.79-.15,1.26-.45,1.79c-.3.52-.71.93-1.22,1.23-.52.29-1.09.44-1.73.44s-1.2-.15-1.72-.44ZM668.76,193.85c.38-.22.68-.54.89-.94.22-.41.33-.88.33-1.42s-.11-1.02-.33-1.42c-.22-.41-.51-.72-.89-.94-.38-.22-.8-.33-1.28-.33s-.91.11-1.28.33c-.38.22-.67.53-.89.94-.22.4-.33.88-.33,1.42s.11,1.01.33,1.42c.22.41.51.72.89.94.38.22.8.33,1.28.33s.9-.11,1.28-.33Z"/>
        <path class="cls-1" d="M678.91,188.15v6.72h-.88v-5.01l-2.23,5.01h-.62l-2.24-5.02v5.02h-.88v-6.72h.95l2.49,5.56,2.49-5.56h.94Z"/>
        <path class="cls-1" d="M683.89,188.82v2.26h2.47v.73h-2.47v2.33h2.76v.73h-3.64v-6.78h3.64v.73h-2.76Z"/>
        <path class="cls-1" d="M690.76,191.5l2.08,3.38h-1l-1.62-2.64-1.54,2.64h-.98l2.07-3.38-2.08-3.39h.99l1.63,2.65,1.55-2.65h.99l-2.09,3.39Z"/>
        <path class="cls-1" d="M697.97,191.49c-.39.37-.97.56-1.76.56h-1.3v2.83h-.88v-6.77h2.19c.76,0,1.35.18,1.74.55s.6.85.6,1.43-.19,1.03-.58,1.4ZM697.29,191c.23-.21.35-.52.35-.91,0-.84-.48-1.25-1.44-1.25h-1.3v2.49h1.3c.49,0,.86-.11,1.09-.32Z"/>
        <path class="cls-1" d="M700.53,194.16h2.37v.72h-3.25v-6.77h.88v6.05Z"/>
        <path class="cls-1" d="M705.19,194.5c-.52-.29-.93-.71-1.23-1.23-.3-.53-.45-1.12-.45-1.78s.15-1.25.45-1.78c.3-.53.71-.94,1.23-1.23.52-.29,1.09-.44,1.72-.44s1.21.15,1.73.44c.52.29.93.71,1.22,1.23s.45,1.12.45,1.79-.15,1.26-.45,1.79c-.3.52-.71.93-1.22,1.23-.52.29-1.09.44-1.73.44s-1.2-.15-1.72-.44ZM708.19,193.85c.38-.22.68-.54.89-.94.22-.41.33-.88.33-1.42s-.11-1.02-.33-1.42c-.22-.41-.51-.72-.89-.94-.38-.22-.8-.33-1.28-.33s-.91.11-1.28.33c-.38.22-.67.53-.89.94-.22.4-.33.88-.33,1.42s.11,1.01.33,1.42c.22.41.51.72.89.94.38.22.8.33,1.28.33s.9-.11,1.28-.33Z"/>
        <path class="cls-1" d="M715.04,194.88l-1.61-2.77h-1.07v2.77h-.88v-6.77h2.19c.51,0,.94.09,1.3.26.35.17.62.41.79.71s.26.64.26,1.02c0,.47-.13.88-.4,1.23s-.67.59-1.21.71l1.7,2.84h-1.06ZM712.36,191.4h1.3c.48,0,.84-.12,1.08-.35.24-.24.36-.55.36-.95s-.12-.71-.35-.93c-.24-.22-.6-.33-1.08-.33h-1.3v2.57Z"/>
        <path class="cls-1" d="M721.39,193.37h-2.95l-.54,1.51h-.93l2.45-6.73h1.02l2.44,6.73h-.93l-.54-1.51ZM721.13,192.65l-1.22-3.42-1.22,3.42h2.45Z"/>
        <path class="cls-1" d="M728.1,188.11v.72h-1.85v6.05h-.88v-6.05h-1.86v-.72h4.59Z"/>
        <path class="cls-1" d="M730.07,188.11v6.77h-.88v-6.77h.88Z"/>
        <path class="cls-1" d="M732.93,194.5c-.52-.29-.93-.71-1.23-1.23-.3-.53-.45-1.12-.45-1.78s.15-1.25.45-1.78c.3-.53.71-.94,1.23-1.23.52-.29,1.09-.44,1.72-.44s1.21.15,1.73.44c.52.29.93.71,1.22,1.23s.45,1.12.45,1.79-.15,1.26-.45,1.79c-.3.52-.71.93-1.22,1.23-.52.29-1.09.44-1.73.44s-1.2-.15-1.72-.44ZM735.93,193.85c.38-.22.68-.54.89-.94.22-.41.33-.88.33-1.42s-.11-1.02-.33-1.42c-.22-.41-.51-.72-.89-.94-.38-.22-.8-.33-1.28-.33s-.91.11-1.28.33c-.38.22-.67.53-.89.94-.22.4-.33.88-.33,1.42s.11,1.01.33,1.42c.22.41.51.72.89.94.38.22.8.33,1.28.33s.9-.11,1.28-.33Z"/>
        <path class="cls-1" d="M744.54,194.88h-.88l-3.56-5.39v5.39h-.88v-6.78h.88l3.56,5.38v-5.38h.88v6.78Z"/>
        <path class="cls-1" d="M746.99,194.71c-.35-.16-.63-.38-.83-.66-.2-.28-.3-.61-.31-.98h.94c.03.32.16.58.39.8.23.22.56.33,1.01.33s.75-.11,1-.32c.24-.21.36-.48.36-.81,0-.26-.07-.47-.21-.63s-.32-.29-.53-.37-.5-.17-.86-.27c-.45-.12-.8-.23-1.07-.35-.27-.12-.5-.3-.69-.55-.19-.25-.29-.58-.29-1,0-.37.09-.7.28-.98.19-.29.45-.5.79-.66.34-.16.73-.23,1.17-.23.63,0,1.15.16,1.56.48.41.32.63.74.69,1.26h-.97c-.03-.26-.17-.49-.41-.68s-.56-.3-.95-.3c-.37,0-.67.1-.9.29-.23.19-.35.46-.35.8,0,.25.07.45.21.6.14.16.31.27.51.35s.49.17.86.28c.45.12.81.25,1.08.36.27.12.5.3.7.55.19.25.29.59.29,1.02,0,.33-.09.64-.26.93-.17.29-.43.53-.78.71-.34.18-.75.27-1.21.27s-.85-.08-1.2-.24Z"/>
        <path class="cls-1" d="M608.76,199.76l-1.96,6.77h-.99l-1.57-5.45-1.63,5.45h-.98s-1.89-6.77-1.89-6.77h.94l1.48,5.74,1.63-5.74h.99l1.55,5.72,1.49-5.72h.95Z"/>
        <path class="cls-1" d="M610.62,199.76v6.77h-.88v-6.77h.88Z"/>
        <path class="cls-1" d="M616.29,199.76v.72h-1.85v6.05h-.88v-6.05h-1.86v-.72h4.59Z"/>
        <path class="cls-1" d="M622.6,199.76v6.77h-.88v-3.07h-3.45v3.07h-.88v-6.77h.88v2.97h3.45v-2.97h.88Z"/>
        <path class="cls-1" d="M630.87,199.76v.72h-1.85v6.05h-.88v-6.05h-1.86v-.72h4.59Z"/>
        <path class="cls-1" d="M636.69,199.76l-2.21,4.22v2.55h-.88v-2.55l-2.21-4.22h.98l1.67,3.43,1.67-3.43h.98Z"/>
        <path class="cls-1" d="M641.58,203.15c-.39.37-.97.56-1.76.56h-1.3v2.83h-.88v-6.77h2.19c.76,0,1.35.18,1.74.55s.6.85.6,1.43-.19,1.03-.58,1.4ZM640.9,202.66c.23-.21.35-.52.35-.91,0-.84-.48-1.25-1.44-1.25h-1.3v2.49h1.3c.49,0,.86-.11,1.09-.32Z"/>
        <path class="cls-1" d="M644.14,200.48v2.26h2.47v.73h-2.47v2.33h2.76v.73h-3.64v-6.78h3.64v.73h-2.76Z"/>
        <path class="cls-1" d="M654.83,205.03h-2.95l-.54,1.51h-.93l2.45-6.73h1.02l2.44,6.73h-.93l-.54-1.51ZM654.58,204.31l-1.22-3.42-1.22,3.42h2.45Z"/>
        <path class="cls-1" d="M662.7,206.54h-.88l-3.56-5.39v5.39h-.88v-6.78h.88l3.56,5.38v-5.38h.88v6.78Z"/>
        <path class="cls-1" d="M668.23,200.18c.54.28.96.67,1.24,1.18s.43,1.11.43,1.81-.14,1.29-.43,1.8c-.29.51-.7.9-1.24,1.17-.54.27-1.18.4-1.92.4h-2.11v-6.77h2.11c.74,0,1.38.14,1.92.41ZM668.32,205.11c.46-.46.69-1.11.69-1.95s-.23-1.5-.69-1.97-1.13-.71-2-.71h-1.22v5.32h1.22c.87,0,1.54-.23,2-.69Z"/>
        <path class="cls-1" d="M677.67,205.03h-2.95l-.54,1.51h-.93l2.45-6.73h1.02l2.44,6.73h-.93l-.54-1.51ZM677.42,204.31l-1.22-3.42-1.22,3.42h2.45Z"/>
        <path class="cls-1" d="M681.1,200.48v2.26h2.47v.73h-2.47v2.33h2.76v.73h-3.64v-6.78h3.64v.73h-2.76Z"/>
        <path class="cls-1" d="M686.15,206.37c-.35-.16-.63-.38-.83-.66-.2-.28-.3-.61-.31-.98h.94c.03.32.16.58.39.8.23.22.56.33,1.01.33s.75-.11,1-.32c.24-.21.36-.48.36-.81,0-.26-.07-.47-.21-.63s-.32-.29-.53-.37-.5-.17-.86-.27c-.45-.12-.8-.23-1.07-.35-.27-.12-.5-.3-.69-.55-.19-.25-.29-.58-.29-1,0-.37.09-.7.28-.98.19-.29.45-.5.79-.66.34-.16.73-.23,1.17-.23.63,0,1.15.16,1.56.48.41.32.63.74.69,1.26h-.97c-.03-.26-.17-.49-.41-.68s-.56-.3-.95-.3c-.37,0-.67.1-.9.29-.23.19-.35.46-.35.8,0,.25.07.45.21.6.14.16.31.27.51.35s.49.17.86.28c.45.12.81.25,1.08.36.27.12.5.3.7.55.19.25.29.59.29,1.02,0,.33-.09.64-.26.93-.17.29-.43.53-.78.71-.34.18-.75.27-1.21.27s-.85-.08-1.2-.24Z"/>
        <path class="cls-1" d="M695.07,199.76v.72h-1.85v6.05h-.88v-6.05h-1.86v-.72h4.59Z"/>
        <path class="cls-1" d="M701.37,199.76v6.77h-.88v-3.07h-3.45v3.07h-.88v-6.77h.88v2.97h3.45v-2.97h.88Z"/>
        <path class="cls-1" d="M703.76,200.48v2.26h2.47v.73h-2.47v2.33h2.76v.73h-3.64v-6.78h3.64v.73h-2.76Z"/>
        <path class="cls-1" d="M712.03,199.76v.72h-1.85v6.05h-.88v-6.05h-1.86v-.72h4.59Z"/>
        <path class="cls-1" d="M714,199.76v6.77h-.88v-6.77h.88Z"/>
        <path class="cls-1" d="M715.63,201.36c.3-.53.71-.94,1.22-1.24s1.09-.45,1.71-.45c.74,0,1.38.18,1.93.53.55.36.95.86,1.21,1.52h-1.06c-.19-.41-.46-.72-.81-.94-.35-.22-.78-.33-1.27-.33s-.9.11-1.27.33c-.38.22-.67.53-.88.94-.21.4-.32.88-.32,1.42s.11,1.01.32,1.41c.21.4.51.72.88.94.38.22.8.33,1.27.33s.91-.11,1.27-.33c.35-.22.62-.53.81-.94h1.06c-.25.65-.65,1.15-1.21,1.5-.55.35-1.19.53-1.93.53-.63,0-1.2-.15-1.71-.44s-.92-.7-1.22-1.23c-.3-.53-.45-1.12-.45-1.78s.15-1.25.45-1.78Z"/>
        <path class="cls-1" d="M723.96,206.37c-.35-.16-.63-.38-.83-.66-.2-.28-.3-.61-.31-.98h.94c.03.32.16.58.39.8.23.22.56.33,1.01.33s.75-.11,1-.32c.24-.21.36-.48.36-.81,0-.26-.07-.47-.21-.63s-.32-.29-.53-.37-.5-.17-.86-.27c-.45-.12-.8-.23-1.07-.35-.27-.12-.5-.3-.69-.55-.19-.25-.29-.58-.29-1,0-.37.09-.7.28-.98.19-.29.45-.5.79-.66.34-.16.73-.23,1.17-.23.63,0,1.15.16,1.56.48.41.32.63.74.69,1.26h-.97c-.03-.26-.17-.49-.41-.68s-.56-.3-.95-.3c-.37,0-.67.1-.9.29-.23.19-.35.46-.35.8,0,.25.07.45.21.6.14.16.31.27.51.35s.49.17.86.28c.45.12.81.25,1.08.36.27.12.5.3.7.55.19.25.29.59.29,1.02,0,.33-.09.64-.26.93-.17.29-.43.53-.78.71-.34.18-.75.27-1.21.27s-.85-.08-1.2-.24Z"/>
      </g>
      <g>
        <path class="cls-1" d="M288.71,277.53c-116.65,0-211.56-51.52-211.56-114.85s94.9-114.85,211.56-114.85,211.56,51.52,211.56,114.85-94.91,114.85-211.56,114.85ZM288.71,48.83c-116.1,0-210.56,51.07-210.56,113.85s94.46,113.85,210.56,113.85,210.56-51.07,210.56-113.85-94.46-113.85-210.56-113.85Z"/>
        <path class="cls-1" d="M289.06,277.53c-102.06,0-185.09-51.52-185.09-114.85s83.03-114.85,185.09-114.85,185.09,51.52,185.09,114.85-83.03,114.85-185.09,114.85ZM289.06,48.83c-101.51,0-184.09,51.07-184.09,113.85s82.58,113.85,184.09,113.85,184.09-51.07,184.09-113.85-82.58-113.85-184.09-113.85Z"/>
        <path class="cls-1" d="M291.18,277.43c-66.64,0-120.85-51.5-120.85-114.8s54.21-114.8,120.85-114.8,120.85,51.5,120.85,114.8-54.21,114.8-120.85,114.8ZM291.18,48.83c-66.09,0-119.85,51.05-119.85,113.8s53.77,113.8,119.85,113.8,119.85-51.05,119.85-113.8-53.77-113.8-119.85-113.8Z"/>
        <path class="cls-1" d="M291.18,277.53c-23.1,0-41.89-51.52-41.89-114.85s18.79-114.85,41.89-114.85,41.89,51.52,41.89,114.85-18.79,114.85-41.89,114.85ZM291.18,48.83c-22.55,0-40.89,51.07-40.89,113.85s18.34,113.85,40.89,113.85,40.89-51.07,40.89-113.85-18.34-113.85-40.89-113.85Z"/>
      </g>
      <g>
        <path class="cls-1" d="M1036.59,277.53c-116.65,0-211.56-51.52-211.56-114.85s94.91-114.85,211.56-114.85,211.56,51.52,211.56,114.85-94.9,114.85-211.56,114.85ZM1036.59,48.83c-116.1,0-210.56,51.07-210.56,113.85s94.46,113.85,210.56,113.85,210.56-51.07,210.56-113.85-94.46-113.85-210.56-113.85Z"/>
        <path class="cls-1" d="M1036.94,277.53c-102.06,0-185.09-51.52-185.09-114.85s83.03-114.85,185.09-114.85,185.09,51.52,185.09,114.85-83.03,114.85-185.09,114.85ZM1036.94,48.83c-101.51,0-184.09,51.07-184.09,113.85s82.58,113.85,184.09,113.85,184.09-51.07,184.09-113.85-82.58-113.85-184.09-113.85Z"/>
        <path class="cls-1" d="M1039.06,277.43c-66.64,0-120.85-51.5-120.85-114.8s54.21-114.8,120.85-114.8,120.85,51.5,120.85,114.8-54.21,114.8-120.85,114.8ZM1039.06,48.83c-66.09,0-119.85,51.05-119.85,113.8s53.77,113.8,119.85,113.8,119.85-51.05,119.85-113.8-53.77-113.8-119.85-113.8Z"/>
        <path class="cls-1" d="M1039.06,277.53c-23.1,0-41.89-51.52-41.89-114.85s18.79-114.85,41.89-114.85,41.89,51.52,41.89,114.85-18.79,114.85-41.89,114.85ZM1039.06,48.83c-22.55,0-40.89,51.07-40.89,113.85s18.34,113.85,40.89,113.85,40.89-51.07,40.89-113.85-18.34-113.85-40.89-113.85Z"/>
      </g>
      <rect class="cls-1" y="157.63" width="1328.47" height="1"/>
      <g>
        <path class="cls-1" d="M663.73,297.03c-10.59,0-19.21-8.62-19.21-19.21s8.62-19.21,19.21-19.21,19.21,8.62,19.21,19.21-8.62,19.21-19.21,19.21ZM663.73,259.62c-10.04,0-18.21,8.17-18.21,18.21s8.17,18.21,18.21,18.21,18.21-8.17,18.21-18.21-8.17-18.21-18.21-18.21Z"/>
        <path class="cls-1" d="M626.32,297.03c-10.59,0-19.21-8.62-19.21-19.21s8.62-19.21,19.21-19.21,19.21,8.62,19.21,19.21-8.62,19.21-19.21,19.21ZM626.32,259.62c-10.04,0-18.21,8.17-18.21,18.21s8.17,18.21,18.21,18.21,18.21-8.17,18.21-18.21-8.17-18.21-18.21-18.21Z"/>
        <path class="cls-1" d="M701.15,297.03c-10.59,0-19.21-8.62-19.21-19.21s8.62-19.21,19.21-19.21,19.21,8.62,19.21,19.21-8.62,19.21-19.21,19.21ZM701.15,259.62c-10.04,0-18.21,8.17-18.21,18.21s8.17,18.21,18.21,18.21,18.21-8.17,18.21-18.21-8.17-18.21-18.21-18.21Z"/>
        <g>
          <rect class="cls-1" x="626.32" y="277.33" width="3" height="1"/>
          <path class="cls-1" d="M691.89,278.33h-6.26v-1h6.26v1ZM679.38,278.33h-6.26v-1h6.26v1ZM666.86,278.33h-6.26v-1h6.26v1ZM654.35,278.33h-6.26v-1h6.26v1ZM641.84,278.33h-6.26v-1h6.26v1Z"/>
          <rect class="cls-1" x="698.15" y="277.33" width="3" height="1"/>
        </g>
      </g>
    </g>
  </g>
</svg>