<?xml version="1.0" encoding="UTF-8"?>
<svg id="Layer_2" data-name="Layer 2" xmlns="http://www.w3.org/2000/svg" viewBox="0 0 224.88 34.24">
  <defs>
    <style>
      .cls-1 {
        fill: #c7090d;
        stroke-width: 0px;
      }
    </style>
  </defs>
  <g id="Layer_2-2" data-name="Layer 2">
    <g>
      <g>
        <path class="cls-1" d="M149.93,15.79c12.49-8.34,6.46-14.37-1.88-1.88,2.93-14.73-5.59-14.73-2.66,0-8.34-12.49-14.37-6.46-1.88,1.88-14.73-2.93-14.73,5.59,0,2.66-12.49,8.34-6.46,14.37,1.88,1.88-2.93,14.73,5.59,14.73,2.66,0,8.34,12.49,14.37,6.46,1.88-1.88,14.73,2.93,14.73-5.59,0-2.66Z"/>
        <path class="cls-1" d="M181.88,15.79c12.49-8.34,6.46-14.37-1.88-1.88,2.93-14.73-5.59-14.73-2.66,0-8.34-12.49-14.37-6.46-1.88,1.88-14.73-2.93-14.73,5.59,0,2.66-12.49,8.34-6.46,14.37,1.88,1.88-2.93,14.73,5.59,14.73,2.66,0,8.34,12.49,14.37,6.46,1.88-1.88,14.73,2.93,14.73-5.59,0-2.66Z"/>
        <path class="cls-1" d="M213.83,15.79c12.49-8.34,6.46-14.37-1.88-1.88,2.93-14.73-5.59-14.73-2.66,0-8.34-12.49-14.37-6.46-1.88,1.88-14.73-2.93-14.73,5.59,0,2.66-12.49,8.34-6.46,14.37,1.88,1.88-2.93,14.73,5.59,14.73,2.66,0,8.34,12.49,14.37,6.46,1.88-1.88,14.73,2.93,14.73-5.59,0-2.66Z"/>
      </g>
      <rect class="cls-1" x="46" y="16.47" width="72.71" height="1.29"/>
      <g>
        <path class="cls-1" d="M17.12,34.24C7.68,34.24,0,26.56,0,17.12S7.68,0,17.12,0s17.12,7.68,17.12,17.12-7.68,17.12-17.12,17.12ZM17.12,4c-7.23,0-13.12,5.88-13.12,13.12s5.88,13.12,13.12,13.12,13.12-5.88,13.12-13.12-5.88-13.12-13.12-13.12Z"/>
        <path class="cls-1" d="M9.55,12.77c.66-1.23,1.58-2.19,2.75-2.87,1.17-.68,2.52-1.02,4.03-1.02,1.96,0,3.57.48,4.84,1.43,1.27.95,2.11,2.27,2.52,3.96h-2.85c-.27-.97-.8-1.74-1.59-2.3-.79-.56-1.76-.84-2.92-.84-1.51,0-2.74.52-3.67,1.56-.93,1.04-1.4,2.51-1.4,4.41s.47,3.4,1.4,4.45c.93,1.05,2.15,1.57,3.67,1.57,1.16,0,2.13-.27,2.91-.81.78-.54,1.31-1.32,1.6-2.33h2.85c-.43,1.63-1.28,2.93-2.56,3.91-1.28.98-2.88,1.47-4.8,1.47-1.51,0-2.86-.34-4.03-1.02-1.17-.68-2.09-1.64-2.75-2.88-.66-1.24-.99-2.7-.99-4.36s.33-3.09.99-4.32Z"/>
      </g>
    </g>
  </g>
</svg>