<?xml version="1.0" encoding="UTF-8"?>
<svg id="Layer_2" data-name="Layer 2" xmlns="http://www.w3.org/2000/svg" viewBox="0 0 165.29 165.29">
  <defs>
    <style>
      .cls-1, .cls-2 {
        stroke-width: 0px;
      }

      .cls-2 {
        fill: #c7090d;
      }
    </style>
  </defs>
  <g id="Layer_2-2" data-name="Layer 2">
    <g>
      <path class="cls-2" d="M165.29,82.65c0,10.26-15.51,17.36-19.21,26.27-3.83,9.25,1.97,25.2-5,32.17-6.97,6.97-22.92,1.17-32.17,5-8.92,3.7-16.02,19.21-26.27,19.21s-17.36-15.51-26.27-19.21c-9.25-3.83-25.2,1.97-32.17-5-6.97-6.97-1.17-22.92-5-32.17C15.51,100,0,92.9,0,82.65s15.51-17.36,19.21-26.27c3.83-9.25-1.97-25.2,5-32.17,6.97-6.97,22.92-1.17,32.17-5C65.29,15.51,72.39,0,82.65,0s17.36,15.51,26.27,19.21,25.2-1.97,32.17,5c6.97,6.97,1.17,22.92,5,32.17s19.21,16.02,19.21,26.27Z"/>
      <g>
        <path class="cls-1" d="M64.15,32.28c.48-.25,1.18-.53,1.87-.73,1.07-.32,1.82-.33,2.43-.04.49.23.87.69,1.05,1.29.31,1.02-.14,1.9-.87,2.42v.04c.67.03,1.19.47,1.62,1.22.58,1.01.98,1.7,1.23,1.95l-1.04.31c-.19-.18-.56-.8-1.07-1.7-.55-1-1.08-1.28-2-1.04l-.94.28,1,3.36-1,.3-2.28-7.65ZM66.2,35.51l1.02-.31c1.07-.32,1.57-1.11,1.31-1.99-.3-1-1.15-1.22-2.22-.92-.48.14-.81.29-.96.39l.84,2.83Z"/>
        <path class="cls-1" d="M76.59,33.75l-3.11.48.45,2.88,3.46-.54.13.87-4.49.7-1.24-7.99,4.32-.67.13.87-3.28.51.39,2.53,3.11-.48.13.85Z"/>
        <path class="cls-1" d="M80.58,34.72l-.8,2.56-1.08.02,2.61-8.13,1.26-.02,2.89,8.04-1.12.02-.91-2.53-2.87.05ZM83.22,33.86l-.83-2.31c-.19-.53-.32-1-.44-1.47h-.02c-.11.48-.24.98-.38,1.47l-.75,2.35,2.44-.04Z"/>
        <path class="cls-1" d="M92.5,37.86c-.41.14-1.19.22-2.17.09-2.26-.31-3.76-1.97-3.4-4.6.35-2.51,2.28-3.97,4.77-3.63,1,.14,1.6.44,1.85.62l-.37.81c-.37-.24-.9-.46-1.57-.56-1.88-.26-3.29.77-3.58,2.87-.27,1.96.68,3.38,2.63,3.65.63.09,1.29.05,1.73-.1l.1.85Z"/>
        <path class="cls-1" d="M97.46,31.06l-.99,3.24,3.74,1.14.99-3.24,1.01.31-2.37,7.73-1.01-.31,1.11-3.63-3.74-1.14-1.11,3.63-1-.31,2.37-7.73,1,.3Z"/>
        <path class="cls-1" d="M112.73,42.32c-1.42,2.4-3.62,2.81-5.4,1.76-1.84-1.09-2.29-3.27-1.04-5.38,1.31-2.21,3.53-2.85,5.39-1.75,1.9,1.12,2.27,3.31,1.05,5.37ZM107.26,39.24c-.88,1.49-.86,3.3.55,4.13,1.43.84,3.01,0,3.94-1.57.82-1.38.95-3.26-.55-4.14-1.49-.88-3.04.06-3.95,1.58Z"/>
        <path class="cls-1" d="M118.01,41.41l-3.1,3.65c-1.17,1.38-1.06,2.49-.23,3.19.92.78,2.01.67,3.17-.7l3.1-3.65.81.68-3.05,3.6c-1.61,1.89-3.27,1.83-4.6.69-1.26-1.07-1.6-2.6.02-4.52l3.08-3.63.81.68Z"/>
        <path class="cls-1" d="M124.47,48.76l-1.62-1.85.67-.58,3.94,4.5-.67.58-1.63-1.86-5.41,4.74-.7-.79,5.41-4.74Z"/>
        <path class="cls-1" d="M124.28,59.32c.38-.24.8-.15,1.02.21.22.36.11.77-.26,1-.37.23-.79.17-1.02-.21-.22-.36-.1-.77.26-1Z"/>
        <path class="cls-1" d="M125.87,61.94c.39-.21.81-.1,1.01.27.2.37.06.77-.33.98-.38.21-.8.12-1.01-.27-.2-.37-.05-.78.33-.98Z"/>
        <path class="cls-1" d="M127.29,64.69c.4-.19.81-.05.99.33s.02.77-.39.96c-.39.18-.8.07-.99-.33-.18-.38,0-.78.39-.96Z"/>
        <path class="cls-1" d="M128.54,67.49c.41-.16.81,0,.97.39.15.39-.03.77-.45.94-.4.16-.8.02-.97-.39-.15-.39.04-.78.45-.93Z"/>
        <path class="cls-1" d="M129.61,70.41c.42-.14.81.05.94.46.13.4-.08.77-.5.9-.41.13-.8-.03-.94-.46-.13-.4.09-.77.5-.9Z"/>
        <path class="cls-1" d="M130.49,73.33c.43-.11.81.11.91.51.1.41-.13.76-.56.87-.42.11-.8-.08-.91-.51-.1-.41.14-.77.56-.87Z"/>
        <path class="cls-1" d="M131.19,76.35c.44-.08.8.16.88.57.08.41-.18.75-.61.84-.42.08-.79-.13-.88-.57-.08-.41.19-.76.61-.84Z"/>
        <path class="cls-1" d="M139.44,82.59c.12.53.19,1.28.21,2,.02,1.12-.17,1.84-.61,2.35-.35.42-.9.65-1.52.67-1.07.02-1.79-.64-2.09-1.48h-.04c-.2.63-.77,1.01-1.61,1.22-1.12.29-1.9.49-2.21.67l-.02-1.08c.23-.14.92-.33,1.92-.58,1.11-.26,1.52-.7,1.54-1.65l-.02-.98-3.5.07-.02-1.04,7.98-.16ZM135.78,83.71l.02,1.07c.02,1.12.65,1.81,1.57,1.79,1.04-.02,1.48-.79,1.47-1.89-.01-.5-.07-.86-.12-1.03l-2.95.06Z"/>
        <path class="cls-1" d="M134.75,94.21l.35-3.12-2.9-.33-.39,3.48-.87-.1.51-4.52,8.03.91-.49,4.34-.87-.1.37-3.3-2.54-.29-.35,3.12-.86-.1Z"/>
        <path class="cls-1" d="M132.76,97.8l-2.25-1.46.27-1.04,7.13,4.72-.32,1.22-8.53.61.28-1.08,2.68-.19.73-2.78ZM132.88,100.57l2.45-.17c.56-.04,1.05-.03,1.54-.03v-.02c-.43-.24-.87-.49-1.31-.77l-2.06-1.36-.62,2.36Z"/>
        <path class="cls-1" d="M135.62,107.21l-4.38-1.92c-1.66-.73-2.69-.3-3.12.69-.48,1.1-.07,2.12,1.57,2.84l4.38,1.92-.42.97-4.32-1.9c-2.27-1-2.68-2.61-1.98-4.21.67-1.52,2.03-2.28,4.33-1.27l4.36,1.92-.42.97Z"/>
        <path class="cls-1" d="M122.35,115.26c.05-.43.3-1.18.83-2,1.23-1.92,3.37-2.58,5.6-1.15,2.13,1.37,2.64,3.74,1.29,5.85-.54.85-1.07,1.27-1.34,1.42l-.58-.67c.38-.23.8-.62,1.16-1.19,1.02-1.59.69-3.31-1.1-4.46-1.66-1.07-3.35-.8-4.41.85-.34.54-.58,1.15-.64,1.61l-.81-.27Z"/>
        <path class="cls-1" d="M126.43,122.62l-2.52-2.25-2.61,2.92,2.52,2.25-.7.79-6.03-5.39.7-.79,2.83,2.53,2.61-2.92-2.83-2.53.7-.78,6.03,5.39-.7.78Z"/>
        <path class="cls-1" d="M109.85,131.77c-1.59-2.29-1.04-4.46.65-5.64,1.75-1.22,3.93-.72,5.33,1.3,1.47,2.11,1.11,4.4-.66,5.63-1.81,1.26-3.95.69-5.32-1.29ZM114.93,128.08c-.99-1.42-2.64-2.16-3.99-1.22-1.36.95-1.26,2.73-.21,4.24.92,1.32,2.57,2.22,4,1.23,1.42-.99,1.22-2.79.2-4.25Z"/>
        <path class="cls-1" d="M108.43,136.97l-2.02-4.34c-.76-1.64-1.82-2-2.8-1.54-1.09.51-1.45,1.55-.7,3.17l2.02,4.34-.96.45-1.99-4.28c-1.05-2.25-.29-3.73,1.29-4.47,1.5-.7,3.03-.37,4.09,1.91l2.01,4.32-.96.45Z"/>
        <path class="cls-1" d="M99.05,139.76l2.36-.69.25.85-5.74,1.69-.25-.85,2.37-.7-2.03-6.9,1.01-.3,2.03,6.9Z"/>
        <path class="cls-1" d="M89.56,135.15c.06.44-.2.79-.62.84s-.74-.22-.8-.66c-.05-.43.18-.78.62-.84.42-.05.74.23.8.66Z"/>
        <path class="cls-1" d="M86.48,135.48c.03.44-.25.77-.67.8-.42.03-.73-.27-.75-.71-.03-.43.23-.77.67-.8.42-.03.73.28.75.71Z"/>
        <path class="cls-1" d="M83.43,135.61c0,.44-.29.76-.71.77-.42,0-.71-.3-.72-.74,0-.43.26-.76.71-.77.42,0,.71.31.72.74Z"/>
        <path class="cls-1" d="M80.32,135.57c-.03.44-.34.74-.76.71-.42-.02-.69-.35-.66-.8.03-.43.32-.74.76-.71.42.02.69.37.66.8Z"/>
        <path class="cls-1" d="M77.27,135.34c-.05.44-.39.71-.81.67-.42-.05-.67-.39-.61-.84.05-.43.36-.72.81-.66.42.05.66.41.61.83Z"/>
        <path class="cls-1" d="M74.21,134.91c-.08.44-.43.69-.85.61-.41-.08-.64-.44-.56-.87.08-.42.41-.69.85-.61.41.08.64.45.56.87Z"/>
        <path class="cls-1" d="M71.17,134.29c-.11.43-.47.66-.88.56-.41-.1-.61-.47-.5-.91.1-.42.45-.67.88-.56.41.1.61.49.5.91Z"/>
        <path class="cls-1" d="M68.22,133.49c-.13.42-.51.63-.91.5-.4-.13-.58-.51-.45-.93.13-.41.49-.64.91-.5.4.13.58.52.45.93Z"/>
        <path class="cls-1" d="M65.28,132.5c-.16.41-.55.6-.95.44-.39-.15-.55-.55-.39-.96.16-.4.53-.6.94-.44.39.15.54.56.39.96Z"/>
        <path class="cls-1" d="M62.44,131.33c-.19.4-.59.56-.97.38-.38-.18-.51-.58-.33-.98.18-.39.57-.57.97-.38.38.18.51.59.33.98Z"/>
        <path class="cls-1" d="M59.66,129.98c-.21.39-.62.52-.99.32-.37-.2-.47-.61-.26-1,.21-.38.6-.53.99-.32.37.2.47.62.26,1Z"/>
        <path class="cls-1" d="M56.99,128.47c-.23.38-.65.48-1.01.26-.36-.22-.44-.64-.2-1.02.23-.37.63-.5,1.01-.26.36.22.43.65.2,1.02Z"/>
        <path class="cls-1" d="M46.82,130.33c-.47-.27-1.07-.72-1.61-1.2-.84-.74-1.24-1.37-1.32-2.04-.07-.54.13-1.1.54-1.57.71-.8,1.68-.89,2.51-.54l.02-.03c-.33-.58-.22-1.25.19-2.01.55-1.02.92-1.73,1-2.08l.81.71c-.05.26-.38.9-.87,1.81-.56,1-.51,1.6.18,2.25l.74.65,2.32-2.63.78.69-5.28,5.99ZM48.47,126.88l-.8-.71c-.84-.74-1.77-.75-2.38-.05-.69.78-.42,1.62.4,2.36.38.33.68.54.84.61l1.95-2.21Z"/>
        <path class="cls-1" d="M41.44,118.99l2.06,2.38,2.2-1.91-2.29-2.65.66-.57,2.98,3.44-6.11,5.3-2.86-3.3.66-.57,2.18,2.51,1.93-1.67-2.06-2.37.65-.57Z"/>
        <path class="cls-1" d="M40.14,115.11l2.6-.67.58.91-8.29,2.06-.68-1.06,5.32-6.69.6.94-1.67,2.1,1.55,2.41ZM38.02,113.32l-1.53,1.92c-.35.44-.69.8-1.02,1.15v.02c.48-.16.97-.31,1.47-.45l2.4-.6-1.32-2.05Z"/>
        <path class="cls-1" d="M36.5,103.34c.33.27.82.89,1.22,1.79.93,2.08.32,4.24-2.1,5.32-2.31,1.03-4.58.17-5.6-2.12-.41-.92-.47-1.59-.46-1.9l.88-.12c-.01.44.08,1.01.36,1.63.77,1.73,2.39,2.39,4.33,1.52,1.81-.81,2.5-2.37,1.7-4.17-.26-.58-.64-1.12-1-1.42l.67-.54Z"/>
        <path class="cls-1" d="M28.1,102.7l3.27-.87-1-3.78-3.27.87-.27-1.02,7.82-2.08.27,1.02-3.66.97,1,3.78,3.66-.97.27,1.01-7.82,2.08-.27-1.01Z"/>
        <path class="cls-1" d="M29.56,83.82c2.78-.07,4.3,1.58,4.35,3.65.05,2.13-1.56,3.68-4.01,3.74-2.57.07-4.29-1.49-4.34-3.65-.06-2.21,1.6-3.68,4-3.74ZM29.85,90.09c1.73-.04,3.25-1.02,3.21-2.66-.04-1.66-1.59-2.55-3.42-2.5-1.61.04-3.27.92-3.22,2.66.04,1.73,1.66,2.55,3.44,2.5Z"/>
        <path class="cls-1" d="M25.99,79.8l4.74.69c1.79.26,2.67-.42,2.82-1.49.17-1.19-.5-2.06-2.27-2.32l-4.74-.69.15-1.04,4.67.68c2.46.36,3.28,1.8,3.03,3.53-.24,1.64-1.35,2.74-3.84,2.38l-4.71-.68.15-1.04Z"/>
        <path class="cls-1" d="M28.79,70.43l-.71,2.36-.85-.26,1.73-5.73.85.26-.71,2.37,6.89,2.08-.3,1.01-6.89-2.08Z"/>
        <path class="cls-1" d="M37.85,65.01c-.4-.19-.55-.6-.36-.98.18-.38.59-.5.99-.3.39.19.56.58.36.98-.18.38-.6.49-.99.3Z"/>
        <path class="cls-1" d="M39.25,62.27c-.39-.22-.51-.63-.3-1,.21-.37.62-.46,1.01-.24.38.21.52.61.3,1-.21.37-.63.46-1.01.24Z"/>
        <path class="cls-1" d="M40.83,59.61c-.37-.24-.47-.67-.24-1.02.23-.35.65-.42,1.02-.18.36.24.48.64.24,1.02-.23.35-.66.42-1.02.18Z"/>
        <path class="cls-1" d="M42.56,57.05c-.36-.26-.43-.69-.18-1.03.25-.34.67-.38,1.03-.12.35.26.44.67.18,1.03-.25.34-.68.37-1.03.12Z"/>
        <path class="cls-1" d="M44.45,54.61c-.34-.29-.38-.72-.11-1.04.27-.32.7-.34,1.03-.05.33.28.4.7.11,1.04-.27.32-.7.33-1.03.05Z"/>
        <path class="cls-1" d="M46.49,52.3c-.32-.31-.34-.74-.05-1.04.29-.3.71-.29,1.04.01.31.3.35.72.05,1.04-.29.3-.72.29-1.04-.01Z"/>
        <path class="cls-1" d="M48.66,50.12c-.3-.33-.29-.76.02-1.04.31-.29.73-.25,1.03.08.29.32.31.74-.02,1.04-.31.28-.74.24-1.03-.08Z"/>
        <path class="cls-1" d="M50.96,48.07c-.28-.34-.24-.78.08-1.04.33-.26.75-.21,1.03.14.27.33.26.76-.08,1.04-.33.26-.75.19-1.03-.14Z"/>
        <path class="cls-1" d="M53.39,46.17c-.26-.36-.19-.79.15-1.03s.76-.16,1.02.2c.25.35.21.78-.15,1.03-.34.24-.76.15-1.02-.2Z"/>
        <path class="cls-1" d="M55.91,44.44c-.24-.38-.15-.8.21-1.02.36-.22.77-.11,1,.27.23.37.17.79-.21,1.02-.36.22-.77.1-1-.27Z"/>
        <path class="cls-1" d="M58.57,42.84c-.21-.39-.1-.81.27-1.01.37-.2.77-.06.98.33.21.38.12.8-.27,1.01-.37.2-.78.05-.98-.33Z"/>
        <path class="cls-1" d="M61.3,41.43c-.19-.4-.05-.81.34-.99.38-.18.77-.01.96.39.18.39.07.8-.34.99-.38.18-.78,0-.96-.39Z"/>
      </g>
      <path class="cls-1" d="M89.09,71.88h-13.76c-3.67,0-6.65,2.98-6.65,6.65v9.88c0,3.67,2.98,6.65,6.65,6.65h13.76c3.67,0,6.65-2.98,6.65-6.65v-9.88c0-3.67-2.98-6.65-6.65-6.65ZM75.32,73.88h13.76c1.61,0,3.03.82,3.86,2.07l-10.72,8.34-10.38-8.83c.85-.96,2.08-1.59,3.47-1.59ZM93.74,88.41c0,2.56-2.08,4.65-4.65,4.65h-13.76c-2.56,0-4.65-2.08-4.65-4.65v-9.88c0-.44.08-.86.2-1.27l11.3,9.61,11.5-8.95c.03.2.06.39.06.6v9.88Z"/>
    </g>
  </g>
</svg>