<?xml version="1.0" encoding="UTF-8"?>
<svg id="Layer_2" data-name="Layer 2" xmlns="http://www.w3.org/2000/svg" viewBox="0 0 27.06 23.18">
  <defs>
    <style>
      .cls-1 {
        stroke-width: 0px;
      }
    </style>
  </defs>
  <g id="Layer_2-2" data-name="Layer 2">
    <path class="cls-1" d="M20.41,0H6.65C2.98,0,0,2.98,0,6.65v9.88c0,3.67,2.98,6.65,6.65,6.65h13.76c3.67,0,6.65-2.98,6.65-6.65V6.65c0-3.67-2.98-6.65-6.65-6.65ZM6.65,2h13.76c1.61,0,3.03.82,3.86,2.07l-10.72,8.34L3.18,3.59c.85-.96,2.08-1.59,3.47-1.59ZM25.06,16.53c0,2.56-2.08,4.65-4.65,4.65H6.65c-2.56,0-4.65-2.08-4.65-4.65V6.65c0-.44.08-.86.2-1.27l11.3,9.61,11.5-8.95c.03.2.06.39.06.6v9.88Z"/>
  </g>
</svg>