<?xml version="1.0" encoding="UTF-8"?>
<svg id="Layer_2" data-name="Layer 2" xmlns="http://www.w3.org/2000/svg" viewBox="0 0 168.28 51.93">
  <defs>
    <style>
      .cls-1 {
        fill: #c7090d;
        stroke-width: 0px;
      }
    </style>
  </defs>
  <g id="Layer_2-2" data-name="Layer 2">
    <g>
      <path class="cls-1" d="M31.81,23.54c22.74-15.19,11.76-26.17-3.43-3.43,5.34-26.82-10.18-26.82-4.85,0-15.19-22.74-26.17-11.76-3.43,3.43-26.82-5.34-26.82,10.18,0,4.85-22.74,15.19-11.76,26.17,3.43,3.43-5.34,26.82,10.18,26.82,4.85,0,15.19,22.74,26.17,11.76,3.43-3.43,26.82,5.34,26.82-10.18,0-4.85Z"/>
      <path class="cls-1" d="M89.99,23.54c22.74-15.19,11.76-26.17-3.43-3.43,5.34-26.82-10.18-26.82-4.85,0-15.19-22.74-26.17-11.76-3.43,3.43-26.82-5.34-26.82,10.18,0,4.85-22.74,15.19-11.76,26.17,3.43,3.43-5.34,26.82,10.18,26.82,4.85,0,15.19,22.74,26.17,11.76,3.43-3.43,26.82,5.34,26.82-10.18,0-4.85Z"/>
      <path class="cls-1" d="M148.17,23.54c22.74-15.19,11.76-26.17-3.43-3.43,5.34-26.82-10.18-26.82-4.85,0-15.19-22.74-26.17-11.76-3.43,3.43-26.82-5.34-26.82,10.18,0,4.85-22.74,15.19-11.76,26.17,3.43,3.43-5.34,26.82,10.18,26.82,4.85,0,15.19,22.74,26.17,11.76,3.43-3.43,26.82,5.34,26.82-10.18,0-4.85Z"/>
    </g>
  </g>
</svg>